solid Object01
  facet normal -3.128206e-003 -6.373528e-001 7.705657e-001
    outer loop
      vertex -2.101734e+003 -2.132912e+002 7.593556e+001
      vertex -2.140337e+003 -2.131018e+002 7.593556e+001
      vertex -2.137603e+003 -2.173274e+002 7.245157e+001
    endloop
  endfacet
  facet normal -1.736565e-007 -6.534302e-001 7.569868e-001
    outer loop
      vertex -2.137603e+003 -2.173274e+002 7.245157e+001
      vertex -2.104346e+003 -2.173274e+002 7.245158e+001
      vertex -2.101734e+003 -2.132912e+002 7.593556e+001
    endloop
  endfacet
  facet normal -1.122539e-004 6.829235e-001 7.304899e-001
    outer loop
      vertex -2.120341e+003 -1.396847e+002 4.730904e+001
      vertex -2.121610e+003 -1.396893e+002 4.731311e+001
      vertex -2.133053e+003 -1.703072e+002 7.593556e+001
    endloop
  endfacet
  facet normal -6.470255e-006 6.829000e-001 7.305118e-001
    outer loop
      vertex -2.133053e+003 -1.703072e+002 7.593556e+001
      vertex -2.108896e+003 -1.703069e+002 7.593556e+001
      vertex -2.120341e+003 -1.396847e+002 4.730904e+001
    endloop
  endfacet
  facet normal 4.782345e-001 8.197792e-001 3.150457e-001
    outer loop
      vertex -2.120974e+003 -1.389890e+002 4.646045e+001
      vertex -2.120341e+003 -1.396847e+002 4.730904e+001
      vertex -2.114928e+003 -1.292160e+002 1.185197e+001
    endloop
  endfacet
  facet normal 4.749705e-001 8.216867e-001 3.150141e-001
    outer loop
      vertex -2.114928e+003 -1.292160e+002 1.185197e+001
      vertex -2.120956e+003 -1.255446e+002 1.136439e+001
      vertex -2.120974e+003 -1.389890e+002 4.646045e+001
    endloop
  endfacet
  facet normal 9.277866e-001 -2.555223e-002 3.722352e-001
    outer loop
      vertex -2.077751e+003 -1.799888e+002 1.822625e+001
      vertex -2.077841e+003 -1.792904e+002 1.849751e+001
      vertex -2.092599e+003 -1.736484e+002 5.567071e+001
    endloop
  endfacet
  facet normal 9.278088e-001 -2.528235e-002 3.721984e-001
    outer loop
      vertex -2.089531e+003 -2.197054e+002 4.489222e+001
      vertex -2.077751e+003 -1.799888e+002 1.822625e+001
      vertex -2.092599e+003 -1.736484e+002 5.567071e+001
    endloop
  endfacet
  facet normal 9.259042e-001 -2.053375e-002 3.771999e-001
    outer loop
      vertex -2.092599e+003 -1.736484e+002 5.567071e+001
      vertex -2.100919e+003 -1.765440e+002 7.593556e+001
      vertex -2.101734e+003 -2.132912e+002 7.593556e+001
    endloop
  endfacet
  facet normal 9.286324e-001 -2.475379e-002 3.701743e-001
    outer loop
      vertex -2.089531e+003 -2.197054e+002 4.489222e+001
      vertex -2.092599e+003 -1.736484e+002 5.567071e+001
      vertex -2.101734e+003 -2.132912e+002 7.593556e+001
    endloop
  endfacet
  facet normal 6.092936e-001 -6.943230e-001 3.829843e-001
    outer loop
      vertex -2.090777e+003 -2.206675e+002 4.513121e+001
      vertex -2.089531e+003 -2.197054e+002 4.489222e+001
      vertex -2.101734e+003 -2.132912e+002 7.593556e+001
    endloop
  endfacet
  facet normal 5.912333e-001 -7.110630e-001 3.805688e-001
    outer loop
      vertex -2.101734e+003 -2.132912e+002 7.593556e+001
      vertex -2.104346e+003 -2.173274e+002 7.245158e+001
      vertex -2.090777e+003 -2.206675e+002 4.513121e+001
    endloop
  endfacet
  facet normal -7.446859e-004 7.730554e-001 6.343381e-001
    outer loop
      vertex -2.120974e+003 -1.389890e+002 4.646045e+001
      vertex -2.121610e+003 -1.396893e+002 4.731311e+001
      vertex -2.120341e+003 -1.396847e+002 4.730904e+001
    endloop
  endfacet
  facet normal 7.727150e-001 5.629462e-001 2.932628e-001
    outer loop
      vertex -2.105562e+003 -1.610776e+002 4.943422e+001
      vertex -2.120341e+003 -1.396847e+002 4.730904e+001
      vertex -2.108896e+003 -1.703069e+002 7.593556e+001
    endloop
  endfacet
  facet normal 8.534500e-001 4.498823e-001 2.631141e-001
    outer loop
      vertex -2.114928e+003 -1.292160e+002 1.185197e+001
      vertex -2.120341e+003 -1.396847e+002 4.730904e+001
      vertex -2.103018e+003 -1.540188e+002 1.562993e+001
    endloop
  endfacet
  facet normal 5.655123e-001 7.515911e-001 3.395684e-001
    outer loop
      vertex -2.105562e+003 -1.610776e+002 4.943422e+001
      vertex -2.100919e+003 -1.765440e+002 7.593556e+001
      vertex -2.092599e+003 -1.736484e+002 5.567071e+001
    endloop
  endfacet
  facet normal 6.877750e-001 7.067363e-001 1.657992e-001
    outer loop
      vertex -2.102497e+003 -1.546454e+002 1.572574e+001
      vertex -2.092599e+003 -1.736484e+002 5.567071e+001
      vertex -2.077841e+003 -1.792904e+002 1.849751e+001
    endloop
  endfacet
  facet normal -4.796739e-001 8.189311e-001 3.150631e-001
    outer loop
      vertex -2.127011e+003 -1.292207e+002 1.187883e+001
      vertex -2.121610e+003 -1.396893e+002 4.731311e+001
      vertex -2.120974e+003 -1.389890e+002 4.646045e+001
    endloop
  endfacet
  facet normal -4.728200e-001 8.229327e-001 3.149969e-001
    outer loop
      vertex -2.120974e+003 -1.389890e+002 4.646045e+001
      vertex -2.120956e+003 -1.255446e+002 1.136439e+001
      vertex -2.127011e+003 -1.292207e+002 1.187883e+001
    endloop
  endfacet
  facet normal 2.041376e-001 -9.543462e-001 2.180621e-001
    outer loop
      vertex -2.090777e+003 -2.206675e+002 4.513121e+001
      vertex -2.104346e+003 -2.173274e+002 7.245158e+001
      vertex -2.120656e+003 -2.282815e+002 3.978006e+001
    endloop
  endfacet
  facet normal 2.041350e-001 -9.543442e-001 2.180737e-001
    outer loop
      vertex -2.120656e+003 -2.282815e+002 3.978006e+001
      vertex -2.119716e+003 -2.281617e+002 3.942463e+001
      vertex -2.090777e+003 -2.206675e+002 4.513121e+001
    endloop
  endfacet
  facet normal -9.278038e-001 -2.527666e-002 3.722112e-001
    outer loop
      vertex -2.152418e+003 -2.197055e+002 4.489215e+001
      vertex -2.164186e+003 -1.800042e+002 1.825420e+001
      vertex -2.168709e+003 -2.004703e+002 5.590088e+000
    endloop
  endfacet
  facet normal -7.727076e-001 5.629531e-001 2.932691e-001
    outer loop
      vertex -2.121610e+003 -1.396893e+002 4.731311e+001
      vertex -2.136387e+003 -1.610776e+002 4.943422e+001
      vertex -2.133053e+003 -1.703072e+002 7.593556e+001
    endloop
  endfacet
  facet normal -8.006268e-001 5.711235e-001 1.811486e-001
    outer loop
      vertex -2.136387e+003 -1.610776e+002 4.943422e+001
      vertex -2.121610e+003 -1.396893e+002 4.731311e+001
      vertex -2.138964e+003 -1.539792e+002 1.566331e+001
    endloop
  endfacet
  facet normal -8.005280e-001 5.712555e-001 1.811688e-001
    outer loop
      vertex -2.138964e+003 -1.539792e+002 1.566331e+001
      vertex -2.139250e+003 -1.543974e+002 1.572180e+001
      vertex -2.136387e+003 -1.610776e+002 4.943422e+001
    endloop
  endfacet
  facet normal -5.623044e-001 7.532920e-001 3.411230e-001
    outer loop
      vertex -2.141030e+003 -1.765440e+002 7.593556e+001
      vertex -2.136387e+003 -1.610776e+002 4.943422e+001
      vertex -2.149398e+003 -1.736234e+002 5.569088e+001
    endloop
  endfacet
  facet normal -6.893744e-001 7.054007e-001 1.648418e-001
    outer loop
      vertex -2.149398e+003 -1.736234e+002 5.569088e+001
      vertex -2.139487e+003 -1.546056e+002 1.575940e+001
      vertex -2.164098e+003 -1.793036e+002 1.852489e+001
    endloop
  endfacet
  facet normal -6.175195e-001 -7.118305e-001 3.346148e-001
    outer loop
      vertex -2.151174e+003 -2.206716e+002 4.513279e+001
      vertex -2.152418e+003 -2.197055e+002 4.489215e+001
      vertex -2.156083e+003 -2.241835e+002 2.860306e+001
    endloop
  endfacet
  facet normal -6.179213e-001 -7.114624e-001 3.346559e-001
    outer loop
      vertex -2.156083e+003 -2.241835e+002 2.860306e+001
      vertex -2.156028e+003 -2.242278e+002 2.861006e+001
      vertex -2.151174e+003 -2.206716e+002 4.513279e+001
    endloop
  endfacet
  facet normal 5.810593e-001 7.431117e-001 3.318962e-001
    outer loop
      vertex -2.108896e+003 -1.703069e+002 7.593556e+001
      vertex -2.100919e+003 -1.765440e+002 7.593556e+001
      vertex -2.105562e+003 -1.610776e+002 4.943422e+001
    endloop
  endfacet
  facet normal 6.304910e-001 7.498764e-001 2.004160e-001
    outer loop
      vertex -2.102497e+003 -1.546454e+002 1.572574e+001
      vertex -2.102733e+003 -1.544368e+002 1.568847e+001
      vertex -2.105562e+003 -1.610776e+002 4.943422e+001
    endloop
  endfacet
  facet normal 6.306651e-001 7.497330e-001 2.004045e-001
    outer loop
      vertex -2.105562e+003 -1.610776e+002 4.943422e+001
      vertex -2.092599e+003 -1.736484e+002 5.567071e+001
      vertex -2.102497e+003 -1.546454e+002 1.572574e+001
    endloop
  endfacet
  facet normal -5.810444e-001 7.431200e-001 3.319036e-001
    outer loop
      vertex -2.133053e+003 -1.703072e+002 7.593556e+001
      vertex -2.136387e+003 -1.610776e+002 4.943422e+001
      vertex -2.141030e+003 -1.765440e+002 7.593556e+001
    endloop
  endfacet
  facet normal -6.275777e-001 7.518155e-001 2.022863e-001
    outer loop
      vertex -2.139250e+003 -1.543974e+002 1.572180e+001
      vertex -2.139487e+003 -1.546056e+002 1.575940e+001
      vertex -2.149398e+003 -1.736234e+002 5.569088e+001
    endloop
  endfacet
  facet normal -6.276240e-001 7.517840e-001 2.022594e-001
    outer loop
      vertex -2.149398e+003 -1.736234e+002 5.569088e+001
      vertex -2.136387e+003 -1.610776e+002 4.943422e+001
      vertex -2.139250e+003 -1.543974e+002 1.572180e+001
    endloop
  endfacet
  facet normal 0.000000e+000 0.000000e+000 1.000000e+000
    outer loop
      vertex -2.108896e+003 -1.703069e+002 7.593556e+001
      vertex -2.133053e+003 -1.703072e+002 7.593556e+001
      vertex -2.141030e+003 -1.765440e+002 7.593556e+001
    endloop
  endfacet
  facet normal 0.000000e+000 0.000000e+000 1.000000e+000
    outer loop
      vertex -2.141030e+003 -1.765440e+002 7.593556e+001
      vertex -2.100919e+003 -1.765440e+002 7.593556e+001
      vertex -2.108896e+003 -1.703069e+002 7.593556e+001
    endloop
  endfacet
  facet normal 0.000000e+000 0.000000e+000 1.000000e+000
    outer loop
      vertex -2.100919e+003 -1.765440e+002 7.593556e+001
      vertex -2.141030e+003 -1.765440e+002 7.593556e+001
      vertex -2.140337e+003 -2.131018e+002 7.593556e+001
    endloop
  endfacet
  facet normal 0.000000e+000 0.000000e+000 1.000000e+000
    outer loop
      vertex -2.140337e+003 -2.131018e+002 7.593556e+001
      vertex -2.101734e+003 -2.132912e+002 7.593556e+001
      vertex -2.100919e+003 -1.765440e+002 7.593556e+001
    endloop
  endfacet
  facet normal -1.932339e-001 -9.459759e-001 2.603655e-001
    outer loop
      vertex -2.122306e+003 -2.281337e+002 3.944612e+001
      vertex -2.151174e+003 -2.206716e+002 4.513279e+001
      vertex -2.156028e+003 -2.242278e+002 2.861006e+001
    endloop
  endfacet
  facet normal -7.988800e-008 -9.481276e-001 3.178899e-001
    outer loop
      vertex -2.120656e+003 -2.282815e+002 3.978006e+001
      vertex -2.104346e+003 -2.173274e+002 7.245158e+001
      vertex -2.137603e+003 -2.173274e+002 7.245157e+001
    endloop
  endfacet
  facet normal -8.863725e-006 -9.481291e-001 3.178857e-001
    outer loop
      vertex -2.137603e+003 -2.173274e+002 7.245157e+001
      vertex -2.121256e+003 -2.282816e+002 3.977982e+001
      vertex -2.120656e+003 -2.282815e+002 3.978006e+001
    endloop
  endfacet
  facet normal 1.980841e-001 -9.496798e-001 2.426334e-001
    outer loop
      vertex -2.090777e+003 -2.206675e+002 4.513121e+001
      vertex -2.119716e+003 -2.281617e+002 3.942463e+001
      vertex -2.085168e+003 -2.243053e+002 2.631321e+001
    endloop
  endfacet
  facet normal 6.156002e-001 -7.190143e-001 3.225753e-001
    outer loop
      vertex -2.085168e+003 -2.243053e+002 2.631321e+001
      vertex -2.085107e+003 -2.242756e+002 2.626349e+001
      vertex -2.089531e+003 -2.197054e+002 4.489222e+001
    endloop
  endfacet
  facet normal 6.163023e-001 -7.184062e-001 3.225896e-001
    outer loop
      vertex -2.089531e+003 -2.197054e+002 4.489222e+001
      vertex -2.090777e+003 -2.206675e+002 4.513121e+001
      vertex -2.085168e+003 -2.243053e+002 2.631321e+001
    endloop
  endfacet
  facet normal 9.278088e-001 -2.528223e-002 3.721985e-001
    outer loop
      vertex -2.077751e+003 -1.799888e+002 1.822625e+001
      vertex -2.089531e+003 -2.197054e+002 4.489222e+001
      vertex -2.073214e+003 -2.000578e+002 5.552406e+000
    endloop
  endfacet
  facet normal -2.037468e-001 -9.544304e-001 2.180592e-001
    outer loop
      vertex -2.122306e+003 -2.281337e+002 3.944612e+001
      vertex -2.121256e+003 -2.282816e+002 3.977982e+001
      vertex -2.137603e+003 -2.173274e+002 7.245157e+001
    endloop
  endfacet
  facet normal -2.037536e-001 -9.544297e-001 2.180558e-001
    outer loop
      vertex -2.137603e+003 -2.173274e+002 7.245157e+001
      vertex -2.151174e+003 -2.206716e+002 4.513279e+001
      vertex -2.122306e+003 -2.281337e+002 3.944612e+001
    endloop
  endfacet
  facet normal -5.985124e-001 -7.033960e-001 3.834279e-001
    outer loop
      vertex -2.151174e+003 -2.206716e+002 4.513279e+001
      vertex -2.137603e+003 -2.173274e+002 7.245157e+001
      vertex -2.140337e+003 -2.131018e+002 7.593556e+001
    endloop
  endfacet
  facet normal -6.113763e-001 -6.913718e-001 3.849986e-001
    outer loop
      vertex -2.140337e+003 -2.131018e+002 7.593556e+001
      vertex -2.152418e+003 -2.197055e+002 4.489215e+001
      vertex -2.151174e+003 -2.206716e+002 4.513279e+001
    endloop
  endfacet
  facet normal -9.304998e-001 -1.762314e-002 3.658682e-001
    outer loop
      vertex -2.152418e+003 -2.197055e+002 4.489215e+001
      vertex -2.140337e+003 -2.131018e+002 7.593556e+001
      vertex -2.141030e+003 -1.765440e+002 7.593556e+001
    endloop
  endfacet
  facet normal -9.252078e-001 -2.804922e-002 3.784228e-001
    outer loop
      vertex -2.152418e+003 -2.197055e+002 4.489215e+001
      vertex -2.141030e+003 -1.765440e+002 7.593556e+001
      vertex -2.149398e+003 -1.736234e+002 5.569088e+001
    endloop
  endfacet
  facet normal -9.282206e-001 -2.613837e-002 3.711110e-001
    outer loop
      vertex -2.164186e+003 -1.800042e+002 1.825420e+001
      vertex -2.152418e+003 -2.197055e+002 4.489215e+001
      vertex -2.149398e+003 -1.736234e+002 5.569088e+001
    endloop
  endfacet
  facet normal -9.282358e-001 -2.595558e-002 3.710858e-001
    outer loop
      vertex -2.164186e+003 -1.800042e+002 1.825420e+001
      vertex -2.149398e+003 -1.736234e+002 5.569088e+001
      vertex -2.164098e+003 -1.793036e+002 1.852489e+001
    endloop
  endfacet
  facet normal -9.335501e-001 -2.315012e-001 2.736631e-001
    outer loop
      vertex -2.152418e+003 -2.197055e+002 4.489215e+001
      vertex -2.168709e+003 -2.004703e+002 5.590088e+000
      vertex -2.156083e+003 -2.241835e+002 2.860306e+001
    endloop
  endfacet
  facet normal 9.348590e-001 -2.225643e-001 2.765932e-001
    outer loop
      vertex -2.073214e+003 -2.000578e+002 5.552406e+000
      vertex -2.089531e+003 -2.197054e+002 4.489222e+001
      vertex -2.085107e+003 -2.242756e+002 2.626349e+001
    endloop
  endfacet
  facet normal -8.523614e-001 4.517725e-001 2.634039e-001
    outer loop
      vertex -2.138964e+003 -1.539792e+002 1.566331e+001
      vertex -2.121610e+003 -1.396893e+002 4.731311e+001
      vertex -2.127011e+003 -1.292207e+002 1.187883e+001
    endloop
  endfacet
  facet normal 8.009620e-001 5.711625e-001 1.795364e-001
    outer loop
      vertex -2.103018e+003 -1.540188e+002 1.562993e+001
      vertex -2.120341e+003 -1.396847e+002 4.730904e+001
      vertex -2.105562e+003 -1.610776e+002 4.943422e+001
    endloop
  endfacet
  facet normal 8.009685e-001 5.711538e-001 1.795350e-001
    outer loop
      vertex -2.105562e+003 -1.610776e+002 4.943422e+001
      vertex -2.102733e+003 -1.544368e+002 1.568847e+001
      vertex -2.103018e+003 -1.540188e+002 1.562993e+001
    endloop
  endfacet
  facet normal 4.804637e-001 8.770143e-001 7.186260e-004
    outer loop
      vertex -2.114063e+003 -1.290535e+002 3.630905e-001
      vertex -2.120975e+003 -1.252669e+002 3.630905e-001
      vertex -2.120957e+003 -1.252847e+002 9.987755e+000
    endloop
  endfacet
  facet normal 5.144798e-001 8.568684e-001 3.297180e-002
    outer loop
      vertex -2.120957e+003 -1.252847e+002 9.987755e+000
      vertex -2.114771e+003 -1.290170e+002 1.046887e+001
      vertex -2.114063e+003 -1.290535e+002 3.630905e-001
    endloop
  endfacet
  facet normal 8.589171e-001 -3.276202e-001 3.936068e-001
    outer loop
      vertex -2.081230e+003 -2.266357e+002 3.630905e-001
      vertex -2.070947e+003 -1.996751e+002 3.630905e-001
      vertex -2.072466e+003 -1.995929e+002 3.746384e+000
    endloop
  endfacet
  facet normal 9.320111e-001 -3.227061e-001 1.649728e-001
    outer loop
      vertex -2.072466e+003 -1.995929e+002 3.746384e+000
      vertex -2.084808e+003 -2.245315e+002 2.469101e+001
      vertex -2.081230e+003 -2.266357e+002 3.630905e-001
    endloop
  endfacet
  facet normal 9.085386e-001 1.007610e-001 4.054686e-001
    outer loop
      vertex -2.072466e+003 -1.995929e+002 3.746384e+000
      vertex -2.070947e+003 -1.996751e+002 3.630905e-001
      vertex -2.073169e+003 -1.796340e+002 3.630905e-001
    endloop
  endfacet
  facet normal 9.671430e-001 7.525910e-002 2.428384e-001
    outer loop
      vertex -2.073169e+003 -1.796340e+002 3.630905e-001
      vertex -2.077383e+003 -1.794029e+002 1.707193e+001
      vertex -2.072466e+003 -1.995929e+002 3.746384e+000
    endloop
  endfacet
  facet normal 8.831473e-001 4.652126e-001 6.023405e-002
    outer loop
      vertex -2.100752e+003 -1.543228e+002 3.630905e-001
      vertex -2.114063e+003 -1.290535e+002 3.630905e-001
      vertex -2.114771e+003 -1.290170e+002 1.046887e+001
    endloop
  endfacet
  facet normal 8.877338e-001 4.455385e-001 1.158626e-001
    outer loop
      vertex -2.114771e+003 -1.290170e+002 1.046887e+001
      vertex -2.102582e+003 -1.543031e+002 1.430919e+001
      vertex -2.100752e+003 -1.543228e+002 3.630905e-001
    endloop
  endfacet
  facet normal 6.675928e-001 7.275074e-001 1.582814e-001
    outer loop
      vertex -2.077383e+003 -1.794029e+002 1.707193e+001
      vertex -2.073169e+003 -1.796340e+002 3.630905e-001
      vertex -2.100752e+003 -1.543228e+002 3.630905e-001
    endloop
  endfacet
  facet normal 6.978025e-001 7.105419e-001 9.056401e-002
    outer loop
      vertex -2.100752e+003 -1.543228e+002 3.630905e-001
      vertex -2.102582e+003 -1.543031e+002 1.430919e+001
      vertex -2.077383e+003 -1.794029e+002 1.707193e+001
    endloop
  endfacet
  facet normal -4.795115e-001 8.769581e-001 3.183069e-002
    outer loop
      vertex -2.120975e+003 -1.252669e+002 3.630905e-001
      vertex -2.127893e+003 -1.290494e+002 3.630905e-001
      vertex -2.127168e+003 -1.290209e+002 1.049564e+001
    endloop
  endfacet
  facet normal -5.153174e-001 8.569956e-001 2.550827e-003
    outer loop
      vertex -2.127168e+003 -1.290209e+002 1.049564e+001
      vertex -2.120957e+003 -1.252847e+002 9.987755e+000
      vertex -2.120975e+003 -1.252669e+002 3.630905e-001
    endloop
  endfacet
  facet normal 1.845985e-001 -9.764567e-001 1.116050e-001
    outer loop
      vertex -2.120979e+003 -2.341503e+002 3.630905e-001
      vertex -2.081230e+003 -2.266357e+002 3.630905e-001
      vertex -2.084808e+003 -2.245315e+002 2.469101e+001
    endloop
  endfacet
  facet normal 1.638055e-001 -9.761603e-001 1.424037e-001
    outer loop
      vertex -2.084808e+003 -2.245315e+002 2.469101e+001
      vertex -2.120956e+003 -2.285900e+002 3.845163e+001
      vertex -2.120979e+003 -2.341503e+002 3.630905e-001
    endloop
  endfacet
  facet normal -8.740845e-001 -3.323648e-001 3.542739e-001
    outer loop
      vertex -2.169504e+003 -1.998925e+002 3.672386e+000
      vertex -2.170949e+003 -1.996215e+002 3.630905e-001
      vertex -2.160669e+003 -2.266569e+002 3.630905e-001
    endloop
  endfacet
  facet normal -9.280704e-001 -3.281530e-001 1.760709e-001
    outer loop
      vertex -2.160669e+003 -2.266569e+002 3.630905e-001
      vertex -2.156389e+003 -2.244627e+002 2.700995e+001
      vertex -2.169504e+003 -1.998925e+002 3.672386e+000
    endloop
  endfacet
  facet normal -9.095788e-001 9.424683e-002 4.047023e-001
    outer loop
      vertex -2.168876e+003 -1.796149e+002 3.630905e-001
      vertex -2.170949e+003 -1.996215e+002 3.630905e-001
      vertex -2.169504e+003 -1.998925e+002 3.672386e+000
    endloop
  endfacet
  facet normal -9.660429e-001 7.051710e-002 2.485729e-001
    outer loop
      vertex -2.169504e+003 -1.998925e+002 3.672386e+000
      vertex -2.164554e+003 -1.794151e+002 1.710142e+001
      vertex -2.168876e+003 -1.796149e+002 3.630905e-001
    endloop
  endfacet
  facet normal -8.830605e-001 4.651639e-001 6.186031e-002
    outer loop
      vertex -2.127168e+003 -1.290209e+002 1.049564e+001
      vertex -2.127893e+003 -1.290494e+002 3.630905e-001
      vertex -2.141194e+003 -1.543004e+002 3.630905e-001
    endloop
  endfacet
  facet normal -8.873318e-001 4.471331e-001 1.127574e-001
    outer loop
      vertex -2.141194e+003 -1.543004e+002 3.630905e-001
      vertex -2.139399e+003 -1.542637e+002 1.434245e+001
      vertex -2.127168e+003 -1.290209e+002 1.049564e+001
    endloop
  endfacet
  facet normal -6.657991e-001 7.280630e-001 1.632046e-001
    outer loop
      vertex -2.141194e+003 -1.543004e+002 3.630905e-001
      vertex -2.168876e+003 -1.796149e+002 3.630905e-001
      vertex -2.164554e+003 -1.794151e+002 1.710142e+001
    endloop
  endfacet
  facet normal -6.994722e-001 7.092275e-001 8.794837e-002
    outer loop
      vertex -2.164554e+003 -1.794151e+002 1.710142e+001
      vertex -2.139399e+003 -1.542637e+002 1.434245e+001
      vertex -2.141194e+003 -1.543004e+002 3.630905e-001
    endloop
  endfacet
  facet normal -1.843986e-001 -9.766725e-001 1.100364e-001
    outer loop
      vertex -2.156389e+003 -2.244627e+002 2.700995e+001
      vertex -2.160669e+003 -2.266569e+002 3.630905e-001
      vertex -2.120979e+003 -2.341503e+002 3.630905e-001
    endloop
  endfacet
  facet normal -1.598532e-001 -9.767735e-001 1.426903e-001
    outer loop
      vertex -2.120979e+003 -2.341503e+002 3.630905e-001
      vertex -2.120956e+003 -2.285900e+002 3.845163e+001
      vertex -2.156389e+003 -2.244627e+002 2.700995e+001
    endloop
  endfacet
  facet normal 5.610065e-003 6.423177e-001 -7.664179e-001
    outer loop
      vertex -2.137031e+003 -2.156147e+002 7.126816e+001
      vertex -2.139136e+003 -2.123834e+002 7.396085e+001
      vertex -2.103032e+003 -2.126987e+002 7.396085e+001
    endloop
  endfacet
  facet normal 3.558223e-005 6.781934e-001 -7.348834e-001
    outer loop
      vertex -2.103032e+003 -2.126987e+002 7.396085e+001
      vertex -2.104928e+003 -2.156294e+002 7.125618e+001
      vertex -2.137031e+003 -2.156147e+002 7.126816e+001
    endloop
  endfacet
  facet normal 1.007814e-005 -6.823419e-001 -7.310332e-001
    outer loop
      vertex -2.110127e+003 -1.711523e+002 7.396085e+001
      vertex -2.131822e+003 -1.711526e+002 7.396085e+001
      vertex -2.120909e+003 -1.408535e+002 4.567993e+001
    endloop
  endfacet
  facet normal -4.758091e-001 -8.236818e-001 -3.084705e-001
    outer loop
      vertex -2.120909e+003 -1.408535e+002 4.567993e+001
      vertex -2.120946e+003 -1.275787e+002 1.028970e+001
      vertex -2.116301e+003 -1.304522e+002 1.079812e+001
    endloop
  endfacet
  facet normal -9.278097e-001 2.528542e-002 -3.721959e-001
    outer loop
      vertex -2.094471e+003 -1.745977e+002 5.489918e+001
      vertex -2.079508e+003 -1.801926e+002 1.721777e+001
      vertex -2.091335e+003 -2.188270e+002 4.407765e+001
    endloop
  endfacet
  facet normal -9.292336e-001 2.432693e-002 -3.686910e-001
    outer loop
      vertex -2.094471e+003 -1.745977e+002 5.489918e+001
      vertex -2.091335e+003 -2.188270e+002 4.407765e+001
      vertex -2.103032e+003 -2.126987e+002 7.396085e+001
    endloop
  endfacet
  facet normal -9.255859e-001 1.881533e-002 -3.780696e-001
    outer loop
      vertex -2.094471e+003 -1.745977e+002 5.489918e+001
      vertex -2.103032e+003 -2.126987e+002 7.396085e+001
      vertex -2.102312e+003 -1.772811e+002 7.396085e+001
    endloop
  endfacet
  facet normal -6.816857e-001 6.169272e-001 -3.933261e-001
    outer loop
      vertex -2.103032e+003 -2.126987e+002 7.396085e+001
      vertex -2.091335e+003 -2.188270e+002 4.407765e+001
      vertex -2.091665e+003 -2.189244e+002 4.449519e+001
    endloop
  endfacet
  facet normal -5.798816e-001 7.225532e-001 -3.763698e-001
    outer loop
      vertex -2.091665e+003 -2.189244e+002 4.449519e+001
      vertex -2.104928e+003 -2.156294e+002 7.125618e+001
      vertex -2.103032e+003 -2.126987e+002 7.396085e+001
    endloop
  endfacet
  facet normal -7.833657e-001 -5.496514e-001 -2.902094e-001
    outer loop
      vertex -2.110127e+003 -1.711523e+002 7.396085e+001
      vertex -2.120909e+003 -1.408535e+002 4.567993e+001
      vertex -2.106985e+003 -1.624148e+002 4.893000e+001
    endloop
  endfacet
  facet normal -8.580866e-001 -4.499112e-001 -2.475223e-001
    outer loop
      vertex -2.104272e+003 -1.555228e+002 1.466759e+001
      vertex -2.120909e+003 -1.408535e+002 4.567993e+001
      vertex -2.116301e+003 -1.304522e+002 1.079812e+001
    endloop
  endfacet
  facet normal -5.681333e-001 -7.497616e-001 -3.392376e-001
    outer loop
      vertex -2.094471e+003 -1.745977e+002 5.489918e+001
      vertex -2.102312e+003 -1.772811e+002 7.396085e+001
      vertex -2.106985e+003 -1.624148e+002 4.893000e+001
    endloop
  endfacet
  facet normal -6.870114e-001 -7.069964e-001 -1.678435e-001
    outer loop
      vertex -2.079508e+003 -1.801926e+002 1.721777e+001
      vertex -2.094471e+003 -1.745977e+002 5.489918e+001
      vertex -2.104272e+003 -1.555228e+002 1.466759e+001
    endloop
  endfacet
  facet normal 4.713436e-001 -8.256098e-001 -3.101672e-001
    outer loop
      vertex -2.120909e+003 -1.408535e+002 4.567993e+001
      vertex -2.125633e+003 -1.304623e+002 1.084154e+001
      vertex -2.120946e+003 -1.275787e+002 1.028970e+001
    endloop
  endfacet
  facet normal -2.035235e-001 9.544038e-001 -2.183842e-001
    outer loop
      vertex -2.091665e+003 -2.189244e+002 4.449519e+001
      vertex -2.120954e+003 -2.264841e+002 3.875369e+001
      vertex -2.104928e+003 -2.156294e+002 7.125618e+001
    endloop
  endfacet
  facet normal 9.277979e-001 2.526407e-002 -3.722268e-001
    outer loop
      vertex -2.167273e+003 -1.998794e+002 3.836975e+000
      vertex -2.162422e+003 -1.802147e+002 1.726327e+001
      vertex -2.150614e+003 -2.188345e+002 4.407628e+001
    endloop
  endfacet
  facet normal 7.808180e-001 -5.528470e-001 -2.910043e-001
    outer loop
      vertex -2.131822e+003 -1.711526e+002 7.396085e+001
      vertex -2.134967e+003 -1.624170e+002 4.892755e+001
      vertex -2.120909e+003 -1.408535e+002 4.567993e+001
    endloop
  endfacet
  facet normal 8.116671e-001 -5.560663e-001 -1.788483e-001
    outer loop
      vertex -2.137734e+003 -1.554566e+002 1.472549e+001
      vertex -2.120909e+003 -1.408535e+002 4.567993e+001
      vertex -2.134967e+003 -1.624170e+002 4.892755e+001
    endloop
  endfacet
  facet normal 5.624448e-001 -7.525759e-001 -3.424694e-001
    outer loop
      vertex -2.147561e+003 -1.745613e+002 5.493128e+001
      vertex -2.134967e+003 -1.624170e+002 4.892755e+001
      vertex -2.139603e+003 -1.772734e+002 7.396085e+001
    endloop
  endfacet
  facet normal 6.896679e-001 -7.047638e-001 -1.663317e-001
    outer loop
      vertex -2.162422e+003 -1.802147e+002 1.726327e+001
      vertex -2.137734e+003 -1.554566e+002 1.472549e+001
      vertex -2.147561e+003 -1.745613e+002 5.493128e+001
    endloop
  endfacet
  facet normal 6.370728e-001 6.934211e-001 -3.366088e-001
    outer loop
      vertex -2.151819e+003 -2.200119e+002 3.937006e+001
      vertex -2.150614e+003 -2.188345e+002 4.407628e+001
      vertex -2.150287e+003 -2.189377e+002 4.448191e+001
    endloop
  endfacet
  facet normal -5.820580e-001 -7.422138e-001 -3.321553e-001
    outer loop
      vertex -2.106985e+003 -1.624148e+002 4.893000e+001
      vertex -2.102312e+003 -1.772811e+002 7.396085e+001
      vertex -2.110127e+003 -1.711523e+002 7.396085e+001
    endloop
  endfacet
  facet normal -6.326166e-001 -7.480461e-001 -2.005573e-001
    outer loop
      vertex -2.104272e+003 -1.555228e+002 1.466759e+001
      vertex -2.094471e+003 -1.745977e+002 5.489918e+001
      vertex -2.106985e+003 -1.624148e+002 4.893000e+001
    endloop
  endfacet
  facet normal 5.832282e-001 -7.413760e-001 -3.319737e-001
    outer loop
      vertex -2.139603e+003 -1.772734e+002 7.396085e+001
      vertex -2.134967e+003 -1.624170e+002 4.892755e+001
      vertex -2.131822e+003 -1.711526e+002 7.396085e+001
    endloop
  endfacet
  facet normal 6.275274e-001 -7.514721e-001 -2.037131e-001
    outer loop
      vertex -2.147561e+003 -1.745613e+002 5.493128e+001
      vertex -2.137734e+003 -1.554566e+002 1.472549e+001
      vertex -2.134967e+003 -1.624170e+002 4.892755e+001
    endloop
  endfacet
  facet normal 0.000000e+000 0.000000e+000 -1.000000e+000
    outer loop
      vertex -2.139603e+003 -1.772734e+002 7.396085e+001
      vertex -2.131822e+003 -1.711526e+002 7.396085e+001
      vertex -2.110127e+003 -1.711523e+002 7.396085e+001
    endloop
  endfacet
  facet normal 0.000000e+000 0.000000e+000 -1.000000e+000
    outer loop
      vertex -2.110127e+003 -1.711523e+002 7.396085e+001
      vertex -2.102312e+003 -1.772811e+002 7.396085e+001
      vertex -2.139603e+003 -1.772734e+002 7.396085e+001
    endloop
  endfacet
  facet normal 0.000000e+000 -0.000000e+000 -1.000000e+000
    outer loop
      vertex -2.139136e+003 -2.123834e+002 7.396085e+001
      vertex -2.139603e+003 -1.772734e+002 7.396085e+001
      vertex -2.102312e+003 -1.772811e+002 7.396085e+001
    endloop
  endfacet
  facet normal 0.000000e+000 0.000000e+000 -1.000000e+000
    outer loop
      vertex -2.102312e+003 -1.772811e+002 7.396085e+001
      vertex -2.103032e+003 -2.126987e+002 7.396085e+001
      vertex -2.139136e+003 -2.123834e+002 7.396085e+001
    endloop
  endfacet
  facet normal 1.934283e-001 9.468743e-001 -2.569329e-001
    outer loop
      vertex -2.150287e+003 -2.189377e+002 4.448191e+001
      vertex -2.120954e+003 -2.264841e+002 3.875369e+001
      vertex -2.151819e+003 -2.200119e+002 3.937006e+001
    endloop
  endfacet
  facet normal 3.149882e-004 9.484566e-001 -3.169070e-001
    outer loop
      vertex -2.104928e+003 -2.156294e+002 7.125618e+001
      vertex -2.120954e+003 -2.264841e+002 3.875369e+001
      vertex -2.137031e+003 -2.156147e+002 7.126816e+001
    endloop
  endfacet
  facet normal -1.981826e-001 9.502782e-001 -2.401979e-001
    outer loop
      vertex -2.089961e+003 -2.199858e+002 3.889048e+001
      vertex -2.120954e+003 -2.264841e+002 3.875369e+001
      vertex -2.091665e+003 -2.189244e+002 4.449519e+001
    endloop
  endfacet
  facet normal -6.221682e-001 7.126588e-001 -3.240742e-001
    outer loop
      vertex -2.089961e+003 -2.199858e+002 3.889048e+001
      vertex -2.091665e+003 -2.189244e+002 4.449519e+001
      vertex -2.091335e+003 -2.188270e+002 4.407765e+001
    endloop
  endfacet
  facet normal -9.278088e-001 2.528336e-002 -3.721985e-001
    outer loop
      vertex -2.074679e+003 -1.992660e+002 3.884850e+000
      vertex -2.091335e+003 -2.188270e+002 4.407765e+001
      vertex -2.079508e+003 -1.801926e+002 1.721777e+001
    endloop
  endfacet
  facet normal 2.028298e-001 9.544598e-001 -2.187841e-001
    outer loop
      vertex -2.137031e+003 -2.156147e+002 7.126816e+001
      vertex -2.120954e+003 -2.264841e+002 3.875369e+001
      vertex -2.150287e+003 -2.189377e+002 4.448191e+001
    endloop
  endfacet
  facet normal 5.954453e-001 7.065855e-001 -3.823372e-001
    outer loop
      vertex -2.139136e+003 -2.123834e+002 7.396085e+001
      vertex -2.137031e+003 -2.156147e+002 7.126816e+001
      vertex -2.150287e+003 -2.189377e+002 4.448191e+001
    endloop
  endfacet
  facet normal 6.842774e-001 6.129047e-001 -3.951106e-001
    outer loop
      vertex -2.150287e+003 -2.189377e+002 4.448191e+001
      vertex -2.150614e+003 -2.188345e+002 4.407628e+001
      vertex -2.139136e+003 -2.123834e+002 7.396085e+001
    endloop
  endfacet
  facet normal 9.307432e-001 3.166842e-002 -3.642996e-001
    outer loop
      vertex -2.139136e+003 -2.123834e+002 7.396085e+001
      vertex -2.150614e+003 -2.188345e+002 4.407628e+001
      vertex -2.162422e+003 -1.802147e+002 1.726327e+001
    endloop
  endfacet
  facet normal 9.289352e-001 2.092923e-002 -3.696502e-001
    outer loop
      vertex -2.139136e+003 -2.123834e+002 7.396085e+001
      vertex -2.162422e+003 -1.802147e+002 1.726327e+001
      vertex -2.147561e+003 -1.745613e+002 5.493128e+001
    endloop
  endfacet
  facet normal 9.231283e-001 1.226683e-002 -3.842963e-001
    outer loop
      vertex -2.139136e+003 -2.123834e+002 7.396085e+001
      vertex -2.147561e+003 -1.745613e+002 5.493128e+001
      vertex -2.139603e+003 -1.772734e+002 7.396085e+001
    endloop
  endfacet
  facet normal 9.347035e-001 2.047120e-001 -2.905554e-001
    outer loop
      vertex -2.151819e+003 -2.200119e+002 3.937006e+001
      vertex -2.167273e+003 -1.998794e+002 3.836975e+000
      vertex -2.150614e+003 -2.188345e+002 4.407628e+001
    endloop
  endfacet
  facet normal -9.359157e-001 1.969649e-001 -2.920044e-001
    outer loop
      vertex -2.089961e+003 -2.199858e+002 3.889048e+001
      vertex -2.091335e+003 -2.188270e+002 4.407765e+001
      vertex -2.074679e+003 -1.992660e+002 3.884850e+000
    endloop
  endfacet
  facet normal 8.553330e-001 -4.531380e-001 -2.511403e-001
    outer loop
      vertex -2.125633e+003 -1.304623e+002 1.084154e+001
      vertex -2.120909e+003 -1.408535e+002 4.567993e+001
      vertex -2.137734e+003 -1.554566e+002 1.472549e+001
    endloop
  endfacet
  facet normal -8.147066e-001 -5.526258e-001 -1.756645e-001
    outer loop
      vertex -2.106985e+003 -1.624148e+002 4.893000e+001
      vertex -2.120909e+003 -1.408535e+002 4.567993e+001
      vertex -2.104272e+003 -1.555228e+002 1.466759e+001
    endloop
  endfacet
  facet normal -4.804580e-001 -8.770167e-001 -1.351663e-003
    outer loop
      vertex -2.120946e+003 -1.275787e+002 1.028970e+001
      vertex -2.120975e+003 -1.275471e+002 3.630905e-001
      vertex -2.115552e+003 -1.305183e+002 3.630905e-001
    endloop
  endfacet
  facet normal -5.232918e-001 -8.515462e-001 -3.216883e-002
    outer loop
      vertex -2.115552e+003 -1.305183e+002 3.630905e-001
      vertex -2.116301e+003 -1.304522e+002 1.079812e+001
      vertex -2.120946e+003 -1.275787e+002 1.028970e+001
    endloop
  endfacet
  facet normal -8.376927e-001 3.199124e-001 -4.426364e-001
    outer loop
      vertex -2.074679e+003 -1.992660e+002 3.884850e+000
      vertex -2.072883e+003 -1.994355e+002 3.630905e-001
      vertex -2.082616e+003 -2.249225e+002 3.630905e-001
    endloop
  endfacet
  facet normal -9.238700e-001 3.155403e-001 -2.165609e-001
    outer loop
      vertex -2.082616e+003 -2.249225e+002 3.630905e-001
      vertex -2.089961e+003 -2.199858e+002 3.889048e+001
      vertex -2.074679e+003 -1.992660e+002 3.884850e+000
    endloop
  endfacet
  facet normal -9.614325e-001 -1.103316e-001 -2.519413e-001
    outer loop
      vertex -2.079508e+003 -1.801926e+002 1.721777e+001
      vertex -2.075045e+003 -1.805906e+002 3.630905e-001
      vertex -2.072883e+003 -1.994355e+002 3.630905e-001
    endloop
  endfacet
  facet normal -8.849806e-001 9.464221e-002 -4.559081e-001
    outer loop
      vertex -2.072883e+003 -1.994355e+002 3.630905e-001
      vertex -2.074679e+003 -1.992660e+002 3.884850e+000
      vertex -2.079508e+003 -1.801926e+002 1.721777e+001
    endloop
  endfacet
  facet normal -8.829939e-001 -4.654779e-001 -6.043315e-002
    outer loop
      vertex -2.116301e+003 -1.304522e+002 1.079812e+001
      vertex -2.115552e+003 -1.305183e+002 3.630905e-001
      vertex -2.102351e+003 -1.555600e+002 3.630905e-001
    endloop
  endfacet
  facet normal -8.880504e-001 -4.443146e-001 -1.181141e-001
    outer loop
      vertex -2.102351e+003 -1.555600e+002 3.630905e-001
      vertex -2.104272e+003 -1.555228e+002 1.466759e+001
      vertex -2.116301e+003 -1.304522e+002 1.079812e+001
    endloop
  endfacet
  facet normal -6.730799e-001 -7.342567e-001 -8.848973e-002
    outer loop
      vertex -2.104272e+003 -1.555228e+002 1.466759e+001
      vertex -2.102351e+003 -1.555600e+002 3.630905e-001
      vertex -2.075045e+003 -1.805906e+002 3.630905e-001
    endloop
  endfacet
  facet normal -6.874462e-001 -7.071709e-001 -1.653091e-001
    outer loop
      vertex -2.075045e+003 -1.805906e+002 3.630905e-001
      vertex -2.079508e+003 -1.801926e+002 1.721777e+001
      vertex -2.104272e+003 -1.555228e+002 1.466759e+001
    endloop
  endfacet
  facet normal 4.787881e-001 -8.773739e-001 -3.125758e-002
    outer loop
      vertex -2.125633e+003 -1.304623e+002 1.084154e+001
      vertex -2.126408e+003 -1.305119e+002 3.630905e-001
      vertex -2.120975e+003 -1.275471e+002 3.630905e-001
    endloop
  endfacet
  facet normal 5.235687e-001 -8.519726e-001 -4.284519e-003
    outer loop
      vertex -2.120975e+003 -1.275471e+002 3.630905e-001
      vertex -2.120946e+003 -1.275787e+002 1.028970e+001
      vertex -2.125633e+003 -1.304623e+002 1.084154e+001
    endloop
  endfacet
  facet normal -1.823921e-001 9.702687e-001 -1.590971e-001
    outer loop
      vertex -2.089961e+003 -2.199858e+002 3.889048e+001
      vertex -2.082616e+003 -2.249225e+002 3.630905e-001
      vertex -2.120968e+003 -2.321319e+002 3.630905e-001
    endloop
  endfacet
  facet normal -2.025105e-001 9.688622e-001 -1.424624e-001
    outer loop
      vertex -2.120968e+003 -2.321319e+002 3.630905e-001
      vertex -2.120954e+003 -2.264841e+002 3.875369e+001
      vertex -2.089961e+003 -2.199858e+002 3.889048e+001
    endloop
  endfacet
  facet normal 9.119380e-001 3.481580e-001 -2.171521e-001
    outer loop
      vertex -2.151819e+003 -2.200119e+002 3.937006e+001
      vertex -2.159228e+003 -2.249348e+002 3.630905e-001
      vertex -2.168993e+003 -1.993548e+002 3.630905e-001
    endloop
  endfacet
  facet normal 8.810557e-001 -1.275675e-001 -4.554860e-001
    outer loop
      vertex -2.168993e+003 -1.993548e+002 3.630905e-001
      vertex -2.167273e+003 -1.998794e+002 3.836975e+000
      vertex -2.151819e+003 -2.200119e+002 3.937006e+001
    endloop
  endfacet
  facet normal 8.868873e-001 -9.123617e-002 -4.528873e-001
    outer loop
      vertex -2.167273e+003 -1.998794e+002 3.836975e+000
      vertex -2.168993e+003 -1.993548e+002 3.630905e-001
      vertex -2.167060e+003 -1.805588e+002 3.630905e-001
    endloop
  endfacet
  facet normal 9.630324e-001 -5.795010e-002 -2.630787e-001
    outer loop
      vertex -2.167060e+003 -1.805588e+002 3.630905e-001
      vertex -2.162422e+003 -1.802147e+002 1.726327e+001
      vertex -2.167273e+003 -1.998794e+002 3.836975e+000
    endloop
  endfacet
  facet normal 8.790972e-001 -4.633985e-001 -1.115793e-001
    outer loop
      vertex -2.137734e+003 -1.554566e+002 1.472549e+001
      vertex -2.139592e+003 -1.555229e+002 3.630905e-001
      vertex -2.126408e+003 -1.305119e+002 3.630905e-001
    endloop
  endfacet
  facet normal 8.942729e-001 -4.429165e-001 -6.403840e-002
    outer loop
      vertex -2.126408e+003 -1.305119e+002 3.630905e-001
      vertex -2.125633e+003 -1.304623e+002 1.084154e+001
      vertex -2.137734e+003 -1.554566e+002 1.472549e+001
    endloop
  endfacet
  facet normal 6.641295e-001 -7.286343e-001 -1.674039e-001
    outer loop
      vertex -2.162422e+003 -1.802147e+002 1.726327e+001
      vertex -2.167060e+003 -1.805588e+002 3.630905e-001
      vertex -2.139592e+003 -1.555229e+002 3.630905e-001
    endloop
  endfacet
  facet normal 7.009056e-001 -7.078789e-001 -8.739949e-002
    outer loop
      vertex -2.139592e+003 -1.555229e+002 3.630905e-001
      vertex -2.137734e+003 -1.554566e+002 1.472549e+001
      vertex -2.162422e+003 -1.802147e+002 1.726327e+001
    endloop
  endfacet
  facet normal 1.829649e-001 9.726412e-001 -1.431532e-001
    outer loop
      vertex -2.120954e+003 -2.264841e+002 3.875369e+001
      vertex -2.120968e+003 -2.321319e+002 3.630905e-001
      vertex -2.159228e+003 -2.249348e+002 3.630905e-001
    endloop
  endfacet
  facet normal 1.995348e-001 9.667547e-001 -1.599100e-001
    outer loop
      vertex -2.159228e+003 -2.249348e+002 3.630905e-001
      vertex -2.151819e+003 -2.200119e+002 3.937006e+001
      vertex -2.120954e+003 -2.264841e+002 3.875369e+001
    endloop
  endfacet
  facet normal 0.000000e+000 0.000000e+000 -1.000000e+000
    outer loop
      vertex -2.115552e+003 -1.305183e+002 3.630905e-001
      vertex -2.120975e+003 -1.275471e+002 3.630905e-001
      vertex -2.120975e+003 -1.252669e+002 3.630905e-001
    endloop
  endfacet
  facet normal 0.000000e+000 0.000000e+000 -1.000000e+000
    outer loop
      vertex -2.120975e+003 -1.252669e+002 3.630905e-001
      vertex -2.114063e+003 -1.290535e+002 3.630905e-001
      vertex -2.115552e+003 -1.305183e+002 3.630905e-001
    endloop
  endfacet
  facet normal 0.000000e+000 0.000000e+000 -1.000000e+000
    outer loop
      vertex -2.082616e+003 -2.249225e+002 3.630905e-001
      vertex -2.072883e+003 -1.994355e+002 3.630905e-001
      vertex -2.070947e+003 -1.996751e+002 3.630905e-001
    endloop
  endfacet
  facet normal 0.000000e+000 0.000000e+000 -1.000000e+000
    outer loop
      vertex -2.070947e+003 -1.996751e+002 3.630905e-001
      vertex -2.081230e+003 -2.266357e+002 3.630905e-001
      vertex -2.082616e+003 -2.249225e+002 3.630905e-001
    endloop
  endfacet
  facet normal 0.000000e+000 0.000000e+000 -1.000000e+000
    outer loop
      vertex -2.072883e+003 -1.994355e+002 3.630905e-001
      vertex -2.075045e+003 -1.805906e+002 3.630905e-001
      vertex -2.073169e+003 -1.796340e+002 3.630905e-001
    endloop
  endfacet
  facet normal 0.000000e+000 0.000000e+000 -1.000000e+000
    outer loop
      vertex -2.073169e+003 -1.796340e+002 3.630905e-001
      vertex -2.070947e+003 -1.996751e+002 3.630905e-001
      vertex -2.072883e+003 -1.994355e+002 3.630905e-001
    endloop
  endfacet
  facet normal 0.000000e+000 0.000000e+000 -1.000000e+000
    outer loop
      vertex -2.102351e+003 -1.555600e+002 3.630905e-001
      vertex -2.115552e+003 -1.305183e+002 3.630905e-001
      vertex -2.114063e+003 -1.290535e+002 3.630905e-001
    endloop
  endfacet
  facet normal 0.000000e+000 0.000000e+000 -1.000000e+000
    outer loop
      vertex -2.114063e+003 -1.290535e+002 3.630905e-001
      vertex -2.100752e+003 -1.543228e+002 3.630905e-001
      vertex -2.102351e+003 -1.555600e+002 3.630905e-001
    endloop
  endfacet
  facet normal 0.000000e+000 0.000000e+000 -1.000000e+000
    outer loop
      vertex -2.075045e+003 -1.805906e+002 3.630905e-001
      vertex -2.102351e+003 -1.555600e+002 3.630905e-001
      vertex -2.100752e+003 -1.543228e+002 3.630905e-001
    endloop
  endfacet
  facet normal 0.000000e+000 0.000000e+000 -1.000000e+000
    outer loop
      vertex -2.100752e+003 -1.543228e+002 3.630905e-001
      vertex -2.073169e+003 -1.796340e+002 3.630905e-001
      vertex -2.075045e+003 -1.805906e+002 3.630905e-001
    endloop
  endfacet
  facet normal 0.000000e+000 0.000000e+000 -1.000000e+000
    outer loop
      vertex -2.120975e+003 -1.275471e+002 3.630905e-001
      vertex -2.126408e+003 -1.305119e+002 3.630905e-001
      vertex -2.127893e+003 -1.290494e+002 3.630905e-001
    endloop
  endfacet
  facet normal 0.000000e+000 0.000000e+000 -1.000000e+000
    outer loop
      vertex -2.127893e+003 -1.290494e+002 3.630905e-001
      vertex -2.120975e+003 -1.252669e+002 3.630905e-001
      vertex -2.120975e+003 -1.275471e+002 3.630905e-001
    endloop
  endfacet
  facet normal 0.000000e+000 0.000000e+000 -1.000000e+000
    outer loop
      vertex -2.120968e+003 -2.321319e+002 3.630905e-001
      vertex -2.082616e+003 -2.249225e+002 3.630905e-001
      vertex -2.081230e+003 -2.266357e+002 3.630905e-001
    endloop
  endfacet
  facet normal 0.000000e+000 0.000000e+000 -1.000000e+000
    outer loop
      vertex -2.081230e+003 -2.266357e+002 3.630905e-001
      vertex -2.120979e+003 -2.341503e+002 3.630905e-001
      vertex -2.120968e+003 -2.321319e+002 3.630905e-001
    endloop
  endfacet
  facet normal 0.000000e+000 0.000000e+000 -1.000000e+000
    outer loop
      vertex -2.168993e+003 -1.993548e+002 3.630905e-001
      vertex -2.159228e+003 -2.249348e+002 3.630905e-001
      vertex -2.160669e+003 -2.266569e+002 3.630905e-001
    endloop
  endfacet
  facet normal 0.000000e+000 0.000000e+000 -1.000000e+000
    outer loop
      vertex -2.160669e+003 -2.266569e+002 3.630905e-001
      vertex -2.170949e+003 -1.996215e+002 3.630905e-001
      vertex -2.168993e+003 -1.993548e+002 3.630905e-001
    endloop
  endfacet
  facet normal 0.000000e+000 0.000000e+000 -1.000000e+000
    outer loop
      vertex -2.167060e+003 -1.805588e+002 3.630905e-001
      vertex -2.168993e+003 -1.993548e+002 3.630905e-001
      vertex -2.170949e+003 -1.996215e+002 3.630905e-001
    endloop
  endfacet
  facet normal 0.000000e+000 0.000000e+000 -1.000000e+000
    outer loop
      vertex -2.170949e+003 -1.996215e+002 3.630905e-001
      vertex -2.168876e+003 -1.796149e+002 3.630905e-001
      vertex -2.167060e+003 -1.805588e+002 3.630905e-001
    endloop
  endfacet
  facet normal 0.000000e+000 0.000000e+000 -1.000000e+000
    outer loop
      vertex -2.126408e+003 -1.305119e+002 3.630905e-001
      vertex -2.139592e+003 -1.555229e+002 3.630905e-001
      vertex -2.141194e+003 -1.543004e+002 3.630905e-001
    endloop
  endfacet
  facet normal 0.000000e+000 0.000000e+000 -1.000000e+000
    outer loop
      vertex -2.141194e+003 -1.543004e+002 3.630905e-001
      vertex -2.127893e+003 -1.290494e+002 3.630905e-001
      vertex -2.126408e+003 -1.305119e+002 3.630905e-001
    endloop
  endfacet
  facet normal 0.000000e+000 0.000000e+000 -1.000000e+000
    outer loop
      vertex -2.139592e+003 -1.555229e+002 3.630905e-001
      vertex -2.167060e+003 -1.805588e+002 3.630905e-001
      vertex -2.168876e+003 -1.796149e+002 3.630905e-001
    endloop
  endfacet
  facet normal 0.000000e+000 0.000000e+000 -1.000000e+000
    outer loop
      vertex -2.168876e+003 -1.796149e+002 3.630905e-001
      vertex -2.141194e+003 -1.543004e+002 3.630905e-001
      vertex -2.139592e+003 -1.555229e+002 3.630905e-001
    endloop
  endfacet
  facet normal 0.000000e+000 0.000000e+000 -1.000000e+000
    outer loop
      vertex -2.159228e+003 -2.249348e+002 3.630905e-001
      vertex -2.120968e+003 -2.321319e+002 3.630905e-001
      vertex -2.120979e+003 -2.341503e+002 3.630905e-001
    endloop
  endfacet
  facet normal 0.000000e+000 0.000000e+000 -1.000000e+000
    outer loop
      vertex -2.120979e+003 -2.341503e+002 3.630905e-001
      vertex -2.160669e+003 -2.266569e+002 3.630905e-001
      vertex -2.159228e+003 -2.249348e+002 3.630905e-001
    endloop
  endfacet
  facet normal -6.284326e-002 2.930460e-002 9.975931e-001
    outer loop
      vertex -2.120955e+003 -1.246348e+002 1.133772e+001
      vertex -2.120956e+003 -1.255446e+002 1.136439e+001
      vertex -2.114928e+003 -1.292160e+002 1.185197e+001
    endloop
  endfacet
  facet normal -2.155855e-002 8.347124e-002 9.962770e-001
    outer loop
      vertex -2.114928e+003 -1.292160e+002 1.185197e+001
      vertex -2.114172e+003 -1.284581e+002 1.180483e+001
      vertex -2.120955e+003 -1.246348e+002 1.133772e+001
    endloop
  endfacet
  facet normal 1.011589e-001 -3.489024e-001 9.316834e-001
    outer loop
      vertex -2.077751e+003 -1.799888e+002 1.822625e+001
      vertex -2.076717e+003 -1.793316e+002 1.836002e+001
      vertex -2.076981e+003 -1.789676e+002 1.852511e+001
    endloop
  endfacet
  facet normal 1.011775e-001 -3.489145e-001 9.316769e-001
    outer loop
      vertex -2.076981e+003 -1.789676e+002 1.852511e+001
      vertex -2.077841e+003 -1.792904e+002 1.849751e+001
      vertex -2.077751e+003 -1.799888e+002 1.822625e+001
    endloop
  endfacet
  facet normal -2.892892e-002 1.369297e-001 9.901583e-001
    outer loop
      vertex -2.114928e+003 -1.292160e+002 1.185197e+001
      vertex -2.103018e+003 -1.540188e+002 1.562993e+001
      vertex -2.102062e+003 -1.534932e+002 1.558518e+001
    endloop
  endfacet
  facet normal -5.940509e-002 1.208906e-001 9.908867e-001
    outer loop
      vertex -2.102062e+003 -1.534932e+002 1.558518e+001
      vertex -2.114172e+003 -1.284581e+002 1.180483e+001
      vertex -2.114928e+003 -1.292160e+002 1.185197e+001
    endloop
  endfacet
  facet normal -5.469601e-002 6.036654e-002 9.966766e-001
    outer loop
      vertex -2.077841e+003 -1.792904e+002 1.849751e+001
      vertex -2.076981e+003 -1.789676e+002 1.852511e+001
      vertex -2.101742e+003 -1.539156e+002 1.564896e+001
    endloop
  endfacet
  facet normal -3.551861e-003 1.082529e-001 9.941170e-001
    outer loop
      vertex -2.101742e+003 -1.539156e+002 1.564896e+001
      vertex -2.102497e+003 -1.546454e+002 1.572574e+001
      vertex -2.077841e+003 -1.792904e+002 1.849751e+001
    endloop
  endfacet
  facet normal 2.930774e-002 9.102459e-002 9.954173e-001
    outer loop
      vertex -2.127766e+003 -1.284613e+002 1.183162e+001
      vertex -2.127011e+003 -1.292207e+002 1.187883e+001
      vertex -2.120956e+003 -1.255446e+002 1.136439e+001
    endloop
  endfacet
  facet normal 5.596684e-002 2.918917e-002 9.980059e-001
    outer loop
      vertex -2.120956e+003 -1.255446e+002 1.136439e+001
      vertex -2.120955e+003 -1.246348e+002 1.133772e+001
      vertex -2.127766e+003 -1.284613e+002 1.183162e+001
    endloop
  endfacet
  facet normal 3.576605e-001 -3.848024e-002 9.330586e-001
    outer loop
      vertex -2.120656e+003 -2.282815e+002 3.978006e+001
      vertex -2.120764e+003 -2.294342e+002 3.977389e+001
      vertex -2.120152e+003 -2.293137e+002 3.954415e+001
    endloop
  endfacet
  facet normal 3.576461e-001 -3.848847e-002 9.330637e-001
    outer loop
      vertex -2.120152e+003 -2.293137e+002 3.954415e+001
      vertex -2.119716e+003 -2.281617e+002 3.942463e+001
      vertex -2.120656e+003 -2.282815e+002 3.978006e+001
    endloop
  endfacet
  facet normal -6.822085e-002 -5.140207e-001 8.550606e-001
    outer loop
      vertex -2.169875e+003 -2.004264e+002 5.523438e+000
      vertex -2.168709e+003 -2.004703e+002 5.590088e+000
      vertex -2.164186e+003 -1.800042e+002 1.825420e+001
    endloop
  endfacet
  facet normal -1.941461e-001 -4.794252e-001 8.558381e-001
    outer loop
      vertex -2.164186e+003 -1.800042e+002 1.825420e+001
      vertex -2.165220e+003 -1.793481e+002 1.838728e+001
      vertex -2.169875e+003 -2.004264e+002 5.523438e+000
    endloop
  endfacet
  facet normal 2.120553e-002 1.242859e-001 9.920198e-001
    outer loop
      vertex -2.138964e+003 -1.539792e+002 1.566331e+001
      vertex -2.139922e+003 -1.534527e+002 1.561781e+001
      vertex -2.140107e+003 -1.537228e+002 1.565561e+001
    endloop
  endfacet
  facet normal 2.120687e-002 1.242919e-001 9.920191e-001
    outer loop
      vertex -2.140107e+003 -1.537228e+002 1.565561e+001
      vertex -2.139250e+003 -1.543974e+002 1.572180e+001
      vertex -2.138964e+003 -1.539792e+002 1.566331e+001
    endloop
  endfacet
  facet normal 5.354078e-002 5.826943e-002 9.968641e-001
    outer loop
      vertex -2.164957e+003 -1.789815e+002 1.855223e+001
      vertex -2.164098e+003 -1.793036e+002 1.852489e+001
      vertex -2.139487e+003 -1.546056e+002 1.575940e+001
    endloop
  endfacet
  facet normal 3.987452e-003 1.097146e-001 9.939551e-001
    outer loop
      vertex -2.139487e+003 -1.546056e+002 1.575940e+001
      vertex -2.140242e+003 -1.538751e+002 1.568179e+001
      vertex -2.164957e+003 -1.789815e+002 1.855223e+001
    endloop
  endfacet
  facet normal -7.631067e-002 6.321754e-002 9.950780e-001
    outer loop
      vertex -2.156083e+003 -2.241835e+002 2.860306e+001
      vertex -2.156811e+003 -2.250020e+002 2.859922e+001
      vertex -2.156552e+003 -2.247914e+002 2.860567e+001
    endloop
  endfacet
  facet normal -7.628574e-002 6.319830e-002 9.950811e-001
    outer loop
      vertex -2.156552e+003 -2.247914e+002 2.860567e+001
      vertex -2.156028e+003 -2.242278e+002 2.861006e+001
      vertex -2.156083e+003 -2.241835e+002 2.860306e+001
    endloop
  endfacet
  facet normal -3.352496e-002 1.388033e-001 9.897524e-001
    outer loop
      vertex -2.102497e+003 -1.546454e+002 1.572574e+001
      vertex -2.101742e+003 -1.539156e+002 1.564896e+001
      vertex -2.101877e+003 -1.537634e+002 1.562303e+001
    endloop
  endfacet
  facet normal -3.352896e-002 1.388060e-001 9.897518e-001
    outer loop
      vertex -2.101877e+003 -1.537634e+002 1.562303e+001
      vertex -2.102733e+003 -1.544368e+002 1.568847e+001
      vertex -2.102497e+003 -1.546454e+002 1.572574e+001
    endloop
  endfacet
  facet normal 3.384787e-002 1.401134e-001 9.895567e-001
    outer loop
      vertex -2.139250e+003 -1.543974e+002 1.572180e+001
      vertex -2.140107e+003 -1.537228e+002 1.565561e+001
      vertex -2.140242e+003 -1.538751e+002 1.568179e+001
    endloop
  endfacet
  facet normal 3.384829e-002 1.401142e-001 9.895566e-001
    outer loop
      vertex -2.140242e+003 -1.538751e+002 1.568179e+001
      vertex -2.139487e+003 -1.546056e+002 1.575940e+001
      vertex -2.139250e+003 -1.543974e+002 1.572180e+001
    endloop
  endfacet
  facet normal -2.638992e-001 2.381424e-001 9.346900e-001
    outer loop
      vertex -2.156028e+003 -2.242278e+002 2.861006e+001
      vertex -2.156552e+003 -2.247914e+002 2.860567e+001
      vertex -2.121827e+003 -2.292982e+002 3.955830e+001
    endloop
  endfacet
  facet normal -3.094903e-001 -3.583355e-002 9.502272e-001
    outer loop
      vertex -2.121827e+003 -2.292982e+002 3.955830e+001
      vertex -2.122306e+003 -2.281337e+002 3.944612e+001
      vertex -2.156028e+003 -2.242278e+002 2.861006e+001
    endloop
  endfacet
  facet normal -4.027867e-004 -5.314985e-003 9.999858e-001
    outer loop
      vertex -2.121256e+003 -2.282816e+002 3.977982e+001
      vertex -2.121144e+003 -2.294348e+002 3.977373e+001
      vertex -2.120764e+003 -2.294342e+002 3.977389e+001
    endloop
  endfacet
  facet normal -4.066496e-004 -5.316633e-003 9.999858e-001
    outer loop
      vertex -2.120764e+003 -2.294342e+002 3.977389e+001
      vertex -2.120656e+003 -2.282815e+002 3.978006e+001
      vertex -2.121256e+003 -2.282816e+002 3.977982e+001
    endloop
  endfacet
  facet normal 3.533216e-001 -3.667430e-002 9.347827e-001
    outer loop
      vertex -2.119716e+003 -2.281617e+002 3.942463e+001
      vertex -2.120152e+003 -2.293137e+002 3.954415e+001
      vertex -2.084643e+003 -2.248592e+002 2.629740e+001
    endloop
  endfacet
  facet normal 3.146932e-001 2.722864e-001 9.093010e-001
    outer loop
      vertex -2.084643e+003 -2.248592e+002 2.629740e+001
      vertex -2.085168e+003 -2.243053e+002 2.631321e+001
      vertex -2.119716e+003 -2.281617e+002 3.942463e+001
    endloop
  endfacet
  facet normal 4.528941e-001 4.065716e-001 7.934648e-001
    outer loop
      vertex -2.085168e+003 -2.243053e+002 2.631321e+001
      vertex -2.084643e+003 -2.248592e+002 2.629740e+001
      vertex -2.084388e+003 -2.250665e+002 2.625799e+001
    endloop
  endfacet
  facet normal 4.517730e-001 4.053303e-001 7.947380e-001
    outer loop
      vertex -2.084388e+003 -2.250665e+002 2.625799e+001
      vertex -2.085107e+003 -2.242756e+002 2.626349e+001
      vertex -2.085168e+003 -2.243053e+002 2.631321e+001
    endloop
  endfacet
  facet normal 4.770216e-002 -5.256132e-001 8.493853e-001
    outer loop
      vertex -2.077751e+003 -1.799888e+002 1.822625e+001
      vertex -2.073214e+003 -2.000578e+002 5.552406e+000
      vertex -2.072065e+003 -2.000197e+002 5.511482e+000
    endloop
  endfacet
  facet normal 1.977306e-001 -4.847068e-001 8.520340e-001
    outer loop
      vertex -2.072065e+003 -2.000197e+002 5.511482e+000
      vertex -2.076717e+003 -1.793316e+002 1.836002e+001
      vertex -2.077751e+003 -1.799888e+002 1.822625e+001
    endloop
  endfacet
  facet normal -3.071119e-001 -3.477664e-002 9.510378e-001
    outer loop
      vertex -2.122306e+003 -2.281337e+002 3.944612e+001
      vertex -2.121827e+003 -2.292982e+002 3.955830e+001
      vertex -2.121144e+003 -2.294348e+002 3.977373e+001
    endloop
  endfacet
  facet normal -3.071327e-001 -3.479705e-002 9.510303e-001
    outer loop
      vertex -2.121144e+003 -2.294348e+002 3.977373e+001
      vertex -2.121256e+003 -2.282816e+002 3.977982e+001
      vertex -2.122306e+003 -2.281337e+002 3.944612e+001
    endloop
  endfacet
  facet normal -1.005356e-001 -3.474874e-001 9.322795e-001
    outer loop
      vertex -2.164098e+003 -1.793036e+002 1.852489e+001
      vertex -2.164957e+003 -1.789815e+002 1.855223e+001
      vertex -2.165220e+003 -1.793481e+002 1.838728e+001
    endloop
  endfacet
  facet normal -1.005368e-001 -3.474732e-001 9.322847e-001
    outer loop
      vertex -2.165220e+003 -1.793481e+002 1.838728e+001
      vertex -2.164186e+003 -1.800042e+002 1.825420e+001
      vertex -2.164098e+003 -1.793036e+002 1.852489e+001
    endloop
  endfacet
  facet normal -1.630486e-002 6.798016e-001 7.332147e-001
    outer loop
      vertex -2.168709e+003 -2.004703e+002 5.590088e+000
      vertex -2.169875e+003 -2.004264e+002 5.523438e+000
      vertex -2.156811e+003 -2.250020e+002 2.859922e+001
    endloop
  endfacet
  facet normal -5.059983e-001 4.466600e-001 7.378758e-001
    outer loop
      vertex -2.156811e+003 -2.250020e+002 2.859922e+001
      vertex -2.156083e+003 -2.241835e+002 2.860306e+001
      vertex -2.168709e+003 -2.004703e+002 5.590088e+000
    endloop
  endfacet
  facet normal 4.651888e-001 4.176301e-001 7.805027e-001
    outer loop
      vertex -2.085107e+003 -2.242756e+002 2.626349e+001
      vertex -2.084388e+003 -2.250665e+002 2.625799e+001
      vertex -2.072065e+003 -2.000197e+002 5.511482e+000
    endloop
  endfacet
  facet normal 5.610383e-003 6.483368e-001 7.613330e-001
    outer loop
      vertex -2.072065e+003 -2.000197e+002 5.511482e+000
      vertex -2.073214e+003 -2.000578e+002 5.552406e+000
      vertex -2.085107e+003 -2.242756e+002 2.626349e+001
    endloop
  endfacet
  facet normal 5.977715e-002 1.210378e-001 9.908464e-001
    outer loop
      vertex -2.127011e+003 -1.292207e+002 1.187883e+001
      vertex -2.127766e+003 -1.284613e+002 1.183162e+001
      vertex -2.139922e+003 -1.534527e+002 1.561781e+001
    endloop
  endfacet
  facet normal 2.858463e-002 1.375396e-001 9.900837e-001
    outer loop
      vertex -2.139922e+003 -1.534527e+002 1.561781e+001
      vertex -2.138964e+003 -1.539792e+002 1.566331e+001
      vertex -2.127011e+003 -1.292207e+002 1.187883e+001
    endloop
  endfacet
  facet normal -2.178153e-002 1.240916e-001 9.920317e-001
    outer loop
      vertex -2.102733e+003 -1.544368e+002 1.568847e+001
      vertex -2.101877e+003 -1.537634e+002 1.562303e+001
      vertex -2.102062e+003 -1.534932e+002 1.558518e+001
    endloop
  endfacet
  facet normal -2.178762e-002 1.240958e-001 9.920310e-001
    outer loop
      vertex -2.102062e+003 -1.534932e+002 1.558518e+001
      vertex -2.103018e+003 -1.540188e+002 1.562993e+001
      vertex -2.102733e+003 -1.544368e+002 1.568847e+001
    endloop
  endfacet
  facet normal 2.534718e-001 3.015821e-001 -9.191302e-001
    outer loop
      vertex -2.114050e+003 -1.283086e+002 1.090018e+001
      vertex -2.114771e+003 -1.290170e+002 1.046887e+001
      vertex -2.120957e+003 -1.252847e+002 9.987755e+000
    endloop
  endfacet
  facet normal 2.838102e-001 3.829549e-001 -8.790889e-001
    outer loop
      vertex -2.120957e+003 -1.252847e+002 9.987755e+000
      vertex -2.120956e+003 -1.243714e+002 1.038602e+001
      vertex -2.114050e+003 -1.283086e+002 1.090018e+001
    endloop
  endfacet
  facet normal -5.308828e-002 -6.266791e-001 -7.774670e-001
    outer loop
      vertex -2.084266e+003 -2.251487e+002 2.515148e+001
      vertex -2.084808e+003 -2.245315e+002 2.469101e+001
      vertex -2.072466e+003 -1.995929e+002 3.746384e+000
    endloop
  endfacet
  facet normal 3.339472e-001 -6.910889e-001 -6.409956e-001
    outer loop
      vertex -2.072466e+003 -1.995929e+002 3.746384e+000
      vertex -2.071612e+003 -1.997145e+002 4.322166e+000
      vertex -2.084266e+003 -2.251487e+002 2.515148e+001
    endloop
  endfacet
  facet normal 5.179735e-001 5.554786e-001 -6.504975e-001
    outer loop
      vertex -2.071612e+003 -1.997145e+002 4.322166e+000
      vertex -2.072466e+003 -1.995929e+002 3.746384e+000
      vertex -2.077383e+003 -1.794029e+002 1.707193e+001
    endloop
  endfacet
  facet normal 2.175501e-001 5.625038e-001 -7.976600e-001
    outer loop
      vertex -2.077383e+003 -1.794029e+002 1.707193e+001
      vertex -2.076621e+003 -1.790285e+002 1.754352e+001
      vertex -2.071612e+003 -1.997145e+002 4.322166e+000
    endloop
  endfacet
  facet normal 4.226556e-001 6.647418e-002 -9.038492e-001
    outer loop
      vertex -2.101780e+003 -1.536771e+002 1.473048e+001
      vertex -2.102582e+003 -1.543031e+002 1.430919e+001
      vertex -2.114771e+003 -1.290170e+002 1.046887e+001
    endloop
  endfacet
  facet normal 4.498959e-001 8.336009e-002 -8.891821e-001
    outer loop
      vertex -2.114771e+003 -1.290170e+002 1.046887e+001
      vertex -2.114050e+003 -1.283086e+002 1.090018e+001
      vertex -2.101780e+003 -1.536771e+002 1.473048e+001
    endloop
  endfacet
  facet normal 3.924081e-001 2.981927e-001 -8.701132e-001
    outer loop
      vertex -2.076621e+003 -1.790285e+002 1.754352e+001
      vertex -2.077383e+003 -1.794029e+002 1.707193e+001
      vertex -2.102582e+003 -1.543031e+002 1.430919e+001
    endloop
  endfacet
  facet normal 3.183774e-001 2.134648e-001 -9.236171e-001
    outer loop
      vertex -2.102582e+003 -1.543031e+002 1.430919e+001
      vertex -2.101780e+003 -1.536771e+002 1.473048e+001
      vertex -2.076621e+003 -1.790285e+002 1.754352e+001
    endloop
  endfacet
  facet normal -3.009684e-001 3.815145e-001 -8.739935e-001
    outer loop
      vertex -2.120956e+003 -1.243714e+002 1.038602e+001
      vertex -2.120957e+003 -1.252847e+002 9.987755e+000
      vertex -2.127168e+003 -1.290209e+002 1.049564e+001
    endloop
  endfacet
  facet normal -2.468458e-001 3.081467e-001 -9.187561e-001
    outer loop
      vertex -2.127168e+003 -1.290209e+002 1.049564e+001
      vertex -2.127887e+003 -1.283119e+002 1.092674e+001
      vertex -2.120956e+003 -1.243714e+002 1.038602e+001
    endloop
  endfacet
  facet normal -2.857962e-001 -4.027372e-001 -8.695535e-001
    outer loop
      vertex -2.120955e+003 -2.295556e+002 3.889830e+001
      vertex -2.120956e+003 -2.285900e+002 3.845163e+001
      vertex -2.084808e+003 -2.245315e+002 2.469101e+001
    endloop
  endfacet
  facet normal -1.817926e-001 -6.855564e-001 -7.049566e-001
    outer loop
      vertex -2.084808e+003 -2.245315e+002 2.469101e+001
      vertex -2.084266e+003 -2.251487e+002 2.515148e+001
      vertex -2.120955e+003 -2.295556e+002 3.889830e+001
    endloop
  endfacet
  facet normal -2.909496e-001 -7.359576e-001 -6.113221e-001
    outer loop
      vertex -2.170357e+003 -2.000484e+002 4.266037e+000
      vertex -2.169504e+003 -1.998925e+002 3.672386e+000
      vertex -2.156389e+003 -2.244627e+002 2.700995e+001
    endloop
  endfacet
  facet normal 9.252705e-002 -6.498529e-001 -7.544070e-001
    outer loop
      vertex -2.156389e+003 -2.244627e+002 2.700995e+001
      vertex -2.156920e+003 -2.250787e+002 2.747547e+001
      vertex -2.170357e+003 -2.000484e+002 4.266037e+000
    endloop
  endfacet
  facet normal -2.104182e-001 5.711755e-001 -7.933995e-001
    outer loop
      vertex -2.165316e+003 -1.790422e+002 1.757181e+001
      vertex -2.164554e+003 -1.794151e+002 1.710142e+001
      vertex -2.169504e+003 -1.998925e+002 3.672386e+000
    endloop
  endfacet
  facet normal -5.455350e-001 5.379859e-001 -6.426218e-001
    outer loop
      vertex -2.169504e+003 -1.998925e+002 3.672386e+000
      vertex -2.170357e+003 -2.000484e+002 4.266037e+000
      vertex -2.165316e+003 -1.790422e+002 1.757181e+001
    endloop
  endfacet
  facet normal -4.507741e-001 8.297688e-002 -8.887730e-001
    outer loop
      vertex -2.127887e+003 -1.283119e+002 1.092674e+001
      vertex -2.127168e+003 -1.290209e+002 1.049564e+001
      vertex -2.139399e+003 -1.542637e+002 1.434245e+001
    endloop
  endfacet
  facet normal -4.208714e-001 6.763008e-002 -9.045957e-001
    outer loop
      vertex -2.139399e+003 -1.542637e+002 1.434245e+001
      vertex -2.140204e+003 -1.536363e+002 1.476374e+001
      vertex -2.127887e+003 -1.283119e+002 1.092674e+001
    endloop
  endfacet
  facet normal -3.162156e-001 2.149037e-001 -9.240260e-001
    outer loop
      vertex -2.140204e+003 -1.536363e+002 1.476374e+001
      vertex -2.139399e+003 -1.542637e+002 1.434245e+001
      vertex -2.164554e+003 -1.794151e+002 1.710142e+001
    endloop
  endfacet
  facet normal -3.942738e-001 2.934567e-001 -8.708796e-001
    outer loop
      vertex -2.164554e+003 -1.794151e+002 1.710142e+001
      vertex -2.165316e+003 -1.790422e+002 1.757181e+001
      vertex -2.140204e+003 -1.536363e+002 1.476374e+001
    endloop
  endfacet
  facet normal 1.537098e-001 -6.766387e-001 -7.200927e-001
    outer loop
      vertex -2.156920e+003 -2.250787e+002 2.747547e+001
      vertex -2.156389e+003 -2.244627e+002 2.700995e+001
      vertex -2.120956e+003 -2.285900e+002 3.845163e+001
    endloop
  endfacet
  facet normal 2.297766e-001 -4.082632e-001 -8.834726e-001
    outer loop
      vertex -2.120956e+003 -2.285900e+002 3.845163e+001
      vertex -2.120955e+003 -2.295556e+002 3.889830e+001
      vertex -2.156920e+003 -2.250787e+002 2.747547e+001
    endloop
  endfacet
  facet normal 8.324259e-001 4.807737e-001 2.755427e-001
    outer loop
      vertex -2.076981e+003 -1.789676e+002 1.852511e+001
      vertex -2.076717e+003 -1.793316e+002 1.836002e+001
      vertex -2.076621e+003 -1.790285e+002 1.754352e+001
    endloop
  endfacet
  facet normal 8.073230e-001 5.724159e-001 1.434206e-001
    outer loop
      vertex -2.101780e+003 -1.536771e+002 1.473048e+001
      vertex -2.102062e+003 -1.534932e+002 1.558518e+001
      vertex -2.101877e+003 -1.537634e+002 1.562303e+001
    endloop
  endfacet
  facet normal 7.273368e-001 6.709575e-001 1.442126e-001
    outer loop
      vertex -2.101877e+003 -1.537634e+002 1.562303e+001
      vertex -2.101742e+003 -1.539156e+002 1.564896e+001
      vertex -2.101780e+003 -1.536771e+002 1.473048e+001
    endloop
  endfacet
  facet normal -8.359907e-001 4.741397e-001 2.762447e-001
    outer loop
      vertex -2.165316e+003 -1.790422e+002 1.757181e+001
      vertex -2.165220e+003 -1.793481e+002 1.838728e+001
      vertex -2.164957e+003 -1.789815e+002 1.855223e+001
    endloop
  endfacet
  facet normal 1.543991e-001 3.266218e-002 9.874685e-001
    outer loop
      vertex -2.140242e+003 -1.538751e+002 1.568179e+001
      vertex -2.140107e+003 -1.537228e+002 1.565561e+001
      vertex -2.139922e+003 -1.534527e+002 1.561781e+001
    endloop
  endfacet
  facet normal -7.815984e-001 6.108654e-001 1.262832e-001
    outer loop
      vertex -2.139922e+003 -1.534527e+002 1.561781e+001
      vertex -2.140204e+003 -1.536363e+002 1.476374e+001
      vertex -2.140242e+003 -1.538751e+002 1.568179e+001
    endloop
  endfacet
  facet normal 6.315779e-001 -7.752669e-001 -8.394565e-003
    outer loop
      vertex -2.156920e+003 -2.250787e+002 2.747547e+001
      vertex -2.156552e+003 -2.247914e+002 2.860567e+001
      vertex -2.156811e+003 -2.250020e+002 2.859922e+001
    endloop
  endfacet
  facet normal -6.316196e-001 -7.751884e-001 -1.181539e-002
    outer loop
      vertex -2.084388e+003 -2.250665e+002 2.625799e+001
      vertex -2.084643e+003 -2.248592e+002 2.629740e+001
      vertex -2.084266e+003 -2.251487e+002 2.515148e+001
    endloop
  endfacet
  facet normal -2.216322e-001 -9.713272e-001 8.603893e-002
    outer loop
      vertex -2.120955e+003 -2.295556e+002 3.889830e+001
      vertex -2.121144e+003 -2.294348e+002 3.977373e+001
      vertex -2.121827e+003 -2.292982e+002 3.955830e+001
    endloop
  endfacet
  facet normal 4.732363e-001 8.567468e-001 2.050181e-001
    outer loop
      vertex -2.114172e+003 -1.284581e+002 1.180483e+001
      vertex -2.114050e+003 -1.283086e+002 1.090018e+001
      vertex -2.120956e+003 -1.243714e+002 1.038602e+001
    endloop
  endfacet
  facet normal 4.647837e-001 8.534281e-001 2.358740e-001
    outer loop
      vertex -2.120956e+003 -1.243714e+002 1.038602e+001
      vertex -2.120955e+003 -1.246348e+002 1.133772e+001
      vertex -2.114172e+003 -1.284581e+002 1.180483e+001
    endloop
  endfacet
  facet normal 8.720353e-001 4.506408e-001 1.909904e-001
    outer loop
      vertex -2.102062e+003 -1.534932e+002 1.558518e+001
      vertex -2.101780e+003 -1.536771e+002 1.473048e+001
      vertex -2.114050e+003 -1.283086e+002 1.090018e+001
    endloop
  endfacet
  facet normal 8.719305e-001 4.506679e-001 1.914043e-001
    outer loop
      vertex -2.114050e+003 -1.283086e+002 1.090018e+001
      vertex -2.114172e+003 -1.284581e+002 1.180483e+001
      vertex -2.102062e+003 -1.534932e+002 1.558518e+001
    endloop
  endfacet
  facet normal 6.828476e-001 7.006146e-001 2.070224e-001
    outer loop
      vertex -2.076981e+003 -1.789676e+002 1.852511e+001
      vertex -2.076621e+003 -1.790285e+002 1.754352e+001
      vertex -2.101780e+003 -1.536771e+002 1.473048e+001
    endloop
  endfacet
  facet normal 6.938514e-001 7.034527e-001 1.540279e-001
    outer loop
      vertex -2.101780e+003 -1.536771e+002 1.473048e+001
      vertex -2.101742e+003 -1.539156e+002 1.564896e+001
      vertex -2.076981e+003 -1.789676e+002 1.852511e+001
    endloop
  endfacet
  facet normal -4.662057e-001 8.525231e-001 2.363400e-001
    outer loop
      vertex -2.120955e+003 -1.246348e+002 1.133772e+001
      vertex -2.120956e+003 -1.243714e+002 1.038602e+001
      vertex -2.127887e+003 -1.283119e+002 1.092674e+001
    endloop
  endfacet
  facet normal -4.681149e-001 8.596828e-001 2.044846e-001
    outer loop
      vertex -2.127887e+003 -1.283119e+002 1.092674e+001
      vertex -2.127766e+003 -1.284613e+002 1.183162e+001
      vertex -2.120955e+003 -1.246348e+002 1.133772e+001
    endloop
  endfacet
  facet normal -9.777442e-001 1.307340e-001 1.640880e-001
    outer loop
      vertex -2.165220e+003 -1.793481e+002 1.838728e+001
      vertex -2.165316e+003 -1.790422e+002 1.757181e+001
      vertex -2.170357e+003 -2.000484e+002 4.266037e+000
    endloop
  endfacet
  facet normal -9.347442e-001 -1.029176e-002 3.551723e-001
    outer loop
      vertex -2.170357e+003 -2.000484e+002 4.266037e+000
      vertex -2.169875e+003 -2.004264e+002 5.523438e+000
      vertex -2.165220e+003 -1.793481e+002 1.838728e+001
    endloop
  endfacet
  facet normal -6.941707e-001 7.031562e-001 1.539428e-001
    outer loop
      vertex -2.140242e+003 -1.538751e+002 1.568179e+001
      vertex -2.140204e+003 -1.536363e+002 1.476374e+001
      vertex -2.165316e+003 -1.790422e+002 1.757181e+001
    endloop
  endfacet
  facet normal -6.852118e-001 6.982341e-001 2.072530e-001
    outer loop
      vertex -2.165316e+003 -1.790422e+002 1.757181e+001
      vertex -2.164957e+003 -1.789815e+002 1.855223e+001
      vertex -2.140242e+003 -1.538751e+002 1.568179e+001
    endloop
  endfacet
  facet normal -2.124555e-001 -9.283223e-001 3.050909e-001
    outer loop
      vertex -2.156552e+003 -2.247914e+002 2.860567e+001
      vertex -2.156920e+003 -2.250787e+002 2.747547e+001
      vertex -2.120955e+003 -2.295556e+002 3.889830e+001
    endloop
  endfacet
  facet normal -1.736785e-001 -9.732863e-001 1.501653e-001
    outer loop
      vertex -2.120955e+003 -2.295556e+002 3.889830e+001
      vertex -2.121827e+003 -2.292982e+002 3.955830e+001
      vertex -2.156552e+003 -2.247914e+002 2.860567e+001
    endloop
  endfacet
  facet normal 1.730098e-001 -9.734828e-001 1.496619e-001
    outer loop
      vertex -2.120152e+003 -2.293137e+002 3.954415e+001
      vertex -2.120955e+003 -2.295556e+002 3.889830e+001
      vertex -2.084266e+003 -2.251487e+002 2.515148e+001
    endloop
  endfacet
  facet normal 2.310061e-001 -9.225817e-001 3.089972e-001
    outer loop
      vertex -2.084266e+003 -2.251487e+002 2.515148e+001
      vertex -2.084643e+003 -2.248592e+002 2.629740e+001
      vertex -2.120152e+003 -2.293137e+002 3.954415e+001
    endloop
  endfacet
  facet normal 9.346212e-001 -9.818462e-004 3.556435e-001
    outer loop
      vertex -2.072065e+003 -2.000197e+002 5.511482e+000
      vertex -2.071612e+003 -1.997145e+002 4.322166e+000
      vertex -2.076621e+003 -1.790285e+002 1.754352e+001
    endloop
  endfacet
  facet normal 9.797430e-001 1.213559e-001 1.592998e-001
    outer loop
      vertex -2.076621e+003 -1.790285e+002 1.754352e+001
      vertex -2.076717e+003 -1.793316e+002 1.836002e+001
      vertex -2.072065e+003 -2.000197e+002 5.511482e+000
    endloop
  endfacet
  facet normal -9.293029e-001 -2.338087e-001 2.858838e-001
    outer loop
      vertex -2.169875e+003 -2.004264e+002 5.523438e+000
      vertex -2.170357e+003 -2.000484e+002 4.266037e+000
      vertex -2.156920e+003 -2.250787e+002 2.747547e+001
    endloop
  endfacet
  facet normal -9.178470e-001 -3.798873e-001 1.150757e-001
    outer loop
      vertex -2.156920e+003 -2.250787e+002 2.747547e+001
      vertex -2.156811e+003 -2.250020e+002 2.859922e+001
      vertex -2.169875e+003 -2.004264e+002 5.523438e+000
    endloop
  endfacet
  facet normal 9.257903e-001 -3.556556e-001 1.281457e-001
    outer loop
      vertex -2.084388e+003 -2.250665e+002 2.625799e+001
      vertex -2.084266e+003 -2.251487e+002 2.515148e+001
      vertex -2.071612e+003 -1.997145e+002 4.322166e+000
    endloop
  endfacet
  facet normal 9.305757e-001 -2.086713e-001 3.008077e-001
    outer loop
      vertex -2.071612e+003 -1.997145e+002 4.322166e+000
      vertex -2.072065e+003 -2.000197e+002 5.511482e+000
      vertex -2.084388e+003 -2.250665e+002 2.625799e+001
    endloop
  endfacet
  facet normal -8.710215e-001 4.525661e-001 1.910639e-001
    outer loop
      vertex -2.127766e+003 -1.284613e+002 1.183162e+001
      vertex -2.127887e+003 -1.283119e+002 1.092674e+001
      vertex -2.140204e+003 -1.536363e+002 1.476374e+001
    endloop
  endfacet
  facet normal -8.712854e-001 4.525581e-001 1.898761e-001
    outer loop
      vertex -2.140204e+003 -1.536363e+002 1.476374e+001
      vertex -2.139922e+003 -1.534527e+002 1.561781e+001
      vertex -2.127766e+003 -1.284613e+002 1.183162e+001
    endloop
  endfacet
  facet normal 2.233662e-001 -9.709215e-001 8.613314e-002
    outer loop
      vertex -2.120955e+003 -2.295556e+002 3.889830e+001
      vertex -2.120152e+003 -2.293137e+002 3.954415e+001
      vertex -2.120764e+003 -2.294342e+002 3.977389e+001
    endloop
  endfacet
  facet normal 1.655546e-003 -9.905676e-001 1.370151e-001
    outer loop
      vertex -2.120955e+003 -2.295556e+002 3.889830e+001
      vertex -2.120764e+003 -2.294342e+002 3.977389e+001
      vertex -2.121144e+003 -2.294348e+002 3.977373e+001
    endloop
  endfacet
endsolid Object01
